<?xml version="1.0" encoding="utf-8"?>
<!-- Generator: Adobe Illustrator 28.0.0, SVG Export Plug-In . SVG Version: 6.00 Build 0)  -->
<svg version="1.1" id="Capa_1" xmlns="http://www.w3.org/2000/svg" xmlns:xlink="http://www.w3.org/1999/xlink" x="0px" y="0px"
	 viewBox="0 0 1000 1000" style="enable-background:new 0 0 1000 1000;" xml:space="preserve">
<style type="text/css">
	.st0{fill:#F1F1F1;}
	.st1{fill:none;stroke:#F1F1F1;stroke-width:2;stroke-miterlimit:10;}
</style>
<g>
	<path class="st0" d="M139.45,462.39c0.23-0.62,0.56-1.23,0.68-1.88c1.77-9.59,7.12-17.45,12.58-25.14
		c3.37-4.75,8.63-7.44,13.73-10.04c5.44-2.77,10.95-5.4,16.5-7.93c4.4-2,9.2-2.42,13.95-2.92c6.25-0.66,12.45-1.78,18.75-2.1
		c5.99-0.3,11.38,2.21,17.09,3.19c20.54,3.5,39.55,11.3,57.77,21.15c8.1,4.38,16.62,7.69,25.28,10.68c3.79,1.31,7.93,0.92,11.87,1.6
		c0.84,0.14,1.78,0.19,2.46,0.62c5.41,3.46,9.91-0.19,11.63-4.97c1.71-4.76,2.82-9.88,5.77-13.97c2.79-3.86,3.05-7.1,1-11.35
		c-1.53-3.17,0.33-6.75,1.08-10.03c1.01-4.44,2.21-8.95,5.87-12.17c2.77-2.43,4.59-2.42,7.23,0.07c2.16,2.03,4.28,4.09,5.82,6.67
		c0.77,1.3,1.69,2.03,3.25,0.98c1.51-1.01,0.98-2.06,0.22-3.15c-2.49-3.58-4.99-7.15-7.27-10.93c3.61,1.96,6.43,4.84,9.01,7.91
		c1.41,1.68,1.85,1.62,3.24-0.14c4.04-5.11,4.8-10.11,0.24-15.52c2.57,0.71,3.38,2.92,5.07,4.38c1.05-0.95,1.02-2.27,1.46-3.36
		c0.46-1.15,0.71-2.4,1.3-3.48c2.47-4.49,5.94-4.49,8.61-0.19c4.13,6.65,4.39,13.64,1.04,20.43c-2.61,5.29-0.45,9.28,2.74,12.65
		c6.82,7.19,11.78,15.57,17.23,23.73c5.67,8.48,9.84,18.12,17.65,25.15c2.72,2.45,4.73,5.49,3.25,9.37
		c-1.15,3.01-3.55,5.34-6.28,6.76c-3,1.56-6.42,2.39-9.73,3.25c-3.03,0.79-6.11,0.34-8.97-0.9c-6.57-2.84-13.73-3.11-20.54-4.91
		c-1.64-0.43-2.18,0.68-2.77,1.82c-5.28,10.27-10.48,20.58-14.49,31.43c-1.15,3.11-2.79,5.78-5.29,8c-2.78,2.47-5.3,5.22-8.07,7.7
		c-9.18,8.22-20.81,10.76-32.23,13.76c-0.18,0.05-0.38,0.09-0.56,0.09c-3.91,0.1-5.32,2.02-6.31,5.95
		c-1.7,6.77-2.04,13.72-3.62,20.49c-0.95,4.06,0.86,8.28,1.25,12.45c0.92,9.97,4.74,19.23,7.43,28.76c0.79,2.78,3.21,4.68,5.16,6.77
		c0.59,0.63,1.26,1.18,1.8,1.85c1.83,2.26,1.39,3.73-1.45,4.16c-6.41,0.98-12.51-0.45-18.45-2.77c-1.32-0.52-1.88-1.92-1.63-3.08
		c0.53-2.51-0.5-4.52-1.59-6.5c-1.21-2.19-1.42-4.35-1.17-6.86c0.8-8.11-0.28-16.16-1.19-24.23c-0.84-7.42-2.54-14.41-7.12-21.06
		c-0.89,4.2-2.94,7.77-3.24,11.85c-0.16,2.2-0.2,4.44-1.1,6.45c-2.9,6.45-0.73,12.98-0.35,19.45c0.57,9.72,4.34,18.72,6.83,28
		c0.78,2.93,3.48,4.94,5.49,7.23c1.08,1.23,3.14,2.34,2.3,4.19c-0.78,1.7-2.98,1.35-4.67,1.46c-4.96,0.35-9.67-0.72-14.25-2.51
		c-2.07-0.81-3.21-2.28-3.04-4.63c0.08-1.14,0.13-2.4-0.51-3.36c-2.46-3.7-1.95-7.8-1.82-11.87c0.36-10.72-1.06-21.32-2.31-31.92
		c-0.12-1.02-0.57-2.01-0.98-2.97c-3.48-8.18-6.18-16.62-8.14-25.29c-0.51-2.23-1.86-3.95-2.93-5.84c-1.56-2.73-3.37-5.33-4.4-8.34
		c-0.44-1.29-1.33-2.14-2.69-2.26c-12.03-1.11-23.04-5.92-34.37-9.55c-2.74-0.88-5.56-1.31-8.35-1.97c-1.37-0.32-2.66,0-3.85,0.7
		c-2.8,1.64-5.61,3.26-8.37,4.95c-0.63,0.39-1.46,0.94-1.6,1.55c-1.02,4.3-2.91,8.56-1.23,13.1c2.48,6.71,5.13,13.35,8.26,19.8
		c1.34,2.76,2.74,5.49,4.88,7.7c2.47,2.55,4.08,5.57,4.79,8.96c0.75,3.56,2.78,5.93,5.74,7.8c1.12,0.71,2.89,1.32,2.37,3.12
		c-0.46,1.59-1.92,2.31-3.54,2.48c-5.63,0.62-11-0.43-16.22-2.5c-1.83-0.73-1.94-2.27-1.73-3.81c0.45-3.25,0.29-6.27-2.18-8.79
		c-0.38-0.39-0.66-0.97-0.79-1.5c-2.82-11.2-9.12-20.95-13.2-31.63c-0.54-1.42-1.16-2.82-1.82-4.2c-1.19-2.48-2.39-2.88-4.3-0.91
		c-2.11,2.17-3.61,4.8-4.81,7.67c-3.12,7.4,0.18,14.05,2.19,20.78c2.21,7.39,4.53,14.8,9.76,20.81c1.16,1.33,1.66,3.02,2.08,4.68
		c0.99,3.96,3.21,7.01,6.25,9.68c3.08,2.71,2.74,3.86-1.12,5.15c-5.7,1.91-10.93,0.01-16.04-2.17c-1.69-0.72-2.57-2.41-2.26-4.54
		c0.43-2.93,0.06-5.67-2.16-7.96c-0.61-0.64-0.93-1.67-1.13-2.58c-2.86-12.73-8.46-24.51-13.2-36.54
		c-2.39-6.08-6.19-11.84-10.78-16.78c-2.97-3.2-4.33-7.16-5.52-11.17c-0.59-2-0.75-4.26,0.55-6.11c2.98-4.23,2.15-8.93,1.86-13.55
		c-0.54-8.53-5.23-15.63-8.23-23.32c-0.07-0.17-0.18-0.36-0.32-0.47c-5.58-4.24-5.81-10.3-5.68-16.51c0.02-0.84-0.26-1.68-0.4-2.52
		C139.45,463.54,139.45,462.97,139.45,462.39z"/>
</g>
<g>
	<path class="st0" d="M499.5,490.55v-62.11h22.36c5.19,0,9.44,0.88,12.75,2.62c3.31,1.75,5.76,4.11,7.35,7.08
		c1.59,2.97,2.39,6.29,2.39,9.95c0,3.66-0.79,6.99-2.38,9.98c-1.58,2.99-4.02,5.37-7.32,7.14c-3.3,1.77-7.52,2.65-12.67,2.65h-16.03
		v-6.67h15.77c3.55,0,6.41-0.58,8.56-1.73c2.15-1.15,3.72-2.71,4.7-4.69s1.47-4.2,1.47-6.69s-0.49-4.71-1.47-6.67
		c-0.98-1.96-2.56-3.5-4.73-4.62c-2.18-1.12-5.06-1.68-8.66-1.68h-14.09v55.44H499.5z"/>
	<path class="st0" d="M624.36,428.44h8.01v41.12c0,4.25-1.06,8.03-3.18,11.36c-2.12,3.33-5.11,5.94-8.97,7.85
		c-3.86,1.91-8.38,2.87-13.57,2.87c-5.19,0-9.72-0.96-13.57-2.87c-3.86-1.91-6.84-4.53-8.97-7.85c-2.12-3.33-3.18-7.11-3.18-11.36
		v-41.12h8.01v40.52c0,3.03,0.71,5.73,2.13,8.08s3.45,4.21,6.09,5.55c2.64,1.35,5.8,2.02,9.48,2.02s6.85-0.67,9.5-2.02
		c2.65-1.34,4.68-3.19,6.09-5.55s2.12-5.05,2.12-8.08V428.44z"/>
	<path class="st0" d="M692.48,490.55h-20.42v-62.11h21.33c6.42,0,11.91,1.24,16.48,3.72c4.57,2.48,8.07,6.02,10.5,10.64
		c2.43,4.62,3.65,10.14,3.65,16.57c0,6.47-1.23,12.04-3.68,16.69c-2.46,4.66-6.03,8.24-10.73,10.74S699.2,490.55,692.48,490.55z
		 M680.07,483.88h11.89c5.47,0,10.01-0.99,13.6-2.97c3.6-1.98,6.28-4.8,8.05-8.46c1.77-3.66,2.65-8.02,2.65-13.07
		c0-5.01-0.87-9.34-2.62-12.96c-1.74-3.63-4.35-6.42-7.82-8.37c-3.47-1.95-7.79-2.93-12.96-2.93h-12.8V483.88z"/>
	<path class="st0" d="M804.55,428.44h8.01v41.12c0,4.25-1.06,8.03-3.18,11.36c-2.12,3.33-5.11,5.94-8.97,7.85
		c-3.86,1.91-8.38,2.87-13.57,2.87c-5.19,0-9.72-0.96-13.57-2.87c-3.86-1.91-6.84-4.53-8.97-7.85c-2.12-3.33-3.18-7.11-3.18-11.36
		v-41.12h8.01v40.52c0,3.03,0.71,5.73,2.13,8.08s3.45,4.21,6.09,5.55c2.64,1.35,5.8,2.02,9.48,2.02s6.85-0.67,9.5-2.02
		c2.65-1.34,4.68-3.19,6.09-5.55s2.12-5.05,2.12-8.08V428.44z"/>
	<path class="st0" d="M499.5,593.03v-62.11h22.36c5.19,0,9.44,0.88,12.75,2.62c3.31,1.75,5.76,4.11,7.35,7.08
		c1.59,2.97,2.39,6.29,2.39,9.95c0,3.66-0.79,6.99-2.38,9.98c-1.58,2.99-4.02,5.37-7.32,7.14c-3.3,1.77-7.52,2.65-12.67,2.65h-16.03
		v-6.67h15.77c3.55,0,6.41-0.58,8.56-1.73c2.15-1.15,3.72-2.71,4.7-4.69s1.47-4.2,1.47-6.69s-0.49-4.71-1.47-6.67
		c-0.98-1.96-2.56-3.5-4.73-4.62c-2.18-1.12-5.06-1.68-8.66-1.68h-14.09v55.44H499.5z"/>
	<path class="st0" d="M575.47,593.03v-62.11h39.94v6.67h-31.93v20.99h29.86v6.67h-29.86v21.11h32.44v6.67H575.47z"/>
	<path class="st0" d="M668.51,593.03h-20.42v-62.11h21.33c6.42,0,11.91,1.24,16.48,3.72c4.57,2.48,8.07,6.02,10.5,10.64
		c2.43,4.62,3.65,10.14,3.65,16.57c0,6.47-1.23,12.04-3.68,16.69c-2.46,4.66-6.03,8.24-10.73,10.74S675.23,593.03,668.51,593.03z
		 M656.1,586.36h11.89c5.47,0,10.01-0.99,13.6-2.97c3.6-1.98,6.28-4.8,8.05-8.46c1.77-3.66,2.65-8.02,2.65-13.07
		c0-5.01-0.87-9.34-2.62-12.96c-1.74-3.63-4.35-6.42-7.82-8.37c-3.47-1.95-7.79-2.93-12.96-2.93h-12.8V586.36z"/>
	<path class="st0" d="M739.7,530.92v62.11h-8.01v-62.11H739.7z"/>
	<path class="st0" d="M776.64,593.03h-8.4l24.3-62.11h8.27l24.3,62.11h-8.4l-19.78-52.28h-0.52L776.64,593.03z M779.74,568.77h33.86
		v6.67h-33.86V568.77z"/>
</g>
<g>
	<polyline class="st1" points="772.7,391.62 858.42,391.62 858.42,473.85 	"/>
	<polyline class="st1" points="545.91,625.85 460.19,625.85 460.19,543.62 	"/>
</g>
</svg>
